<?xml version="1.0" encoding="UTF-8" standalone="no"?>
<svg xmlns="http://www.w3.org/2000/svg" width="280" height="50" viewBox="0 0 280 50">
  <defs>
    <style>
      @import url('https://fonts.googleapis.com/css2?family=Comfortaa:wght@700&amp;display=swap');
    </style>
  </defs>
  
  <!-- ICONO - Escalado y centrado -->
  <g transform="translate(2, 2) scale(0.30)">
    <!-- Círculo coral con opacidad -->
    <g style="fill:#ed7659;fill-opacity:1;opacity:0.25">
      <path d="M 0,77.23 C 0,34.64 34.64,0 77.23,0 c 42.59,0 77.23,34.64 77.23,77.23 0,42.59 -34.64,77.23 -77.23,77.23 C 34.64,154.46 0,119.81 0,77.23 Z m 21.23,0 c 0,30.88 25.12,56 56,56 30.88,0 56,-25.12 56,-56 0,-30.88 -25.12,-56 -56,-56 -30.88,0 -56,25.12 -56,56 z"/>
    </g>
    
    <!-- Arco coral principal -->
    <path style="fill:#ed7659;fill-opacity:1" d="m 5.6918306,48.165491 v 0 c 1.5805083,-3.891252 5.3917344,-6.642136 9.8431654,-6.642136 5.861886,0 10.613414,4.751528 10.613414,10.613413 0,1.420457 -0.28009,2.780894 -0.790254,4.021293 h 0.01 c -2.660856,6.512095 -4.131329,13.634385 -4.131329,21.086782 0,30.889937 25.128082,56.018017 56.018016,56.018017 30.889937,0 56.018017,-25.12808 56.018017,-56.018017 0,-30.889934 -25.12808,-56.018016 -56.018017,-56.018016 -5.861885,0 -10.613413,-4.751528 -10.613413,-10.613414 C 66.64143,4.7515282 71.392958,0 77.254843,0 c 42.593707,0 77.254847,34.651144 77.254847,77.254846 0,42.603704 -34.65114,77.254844 -77.254847,77.254844 C 34.651144,154.50969 0,119.84855 0,77.254846 0,66.971539 2.0306531,57.14838 5.6918306,48.165491 Z"/>
    
    <!-- Manecillas turquesa -->
    <g transform="matrix(1.0300646,0,0,1.0300646,59.939415,194.10383)">
      <g transform="matrix(1.0169524,0,0,1.0169524,-0.19103689,2.4778442)">
        <path style="fill:#1792a4" d="m 48.615272,-99.628886 c -0.446599,-1.563094 -1.496108,-2.858234 -2.947555,-3.639784 L 23.002809,-115.4385 v -24.76392 c 0,-3.28251 -2.679595,-5.9621 -5.962099,-5.9621 h -0.24563 c -3.282504,0 -5.962099,2.67959 -5.962099,5.9621 v 21.1688 c -1.049508,0.51359 -1.942706,1.31747 -2.545615,2.36698 -0.8038786,1.38445 -1.0048476,2.99221 -0.5805786,4.53298 0.4465986,1.56309 1.4961066,2.85823 2.9475546,3.63978 l 0.200969,0.11165 v 0.29029 c 0,3.2825 2.679595,5.9621 5.962099,5.9621 h 0.24563 c 1.272807,0 2.456295,-0.40194 3.416484,-1.09417 l 19.360074,10.405761 c 0.915528,0.491259 1.920376,0.736889 2.902895,0.736889 2.121346,0 4.198032,-1.094168 5.31453,-2.992214 0.803878,-1.384458 1.004848,-2.992215 0.580579,-4.532982 z"/>
      </g>
    </g>
  </g>
  
  <!-- TEXTO -->
  <text x="58" y="32" font-family="Comfortaa, sans-serif" font-size="18" font-weight="700" fill="#1A1A1A">La Fábrica del Tiempo<tspan font-size="10" baseline-shift="super">®</tspan></text>
</svg>
